<svg version="1.1" xmlns="http://www.w3.org/2000/svg" xmlns:xlink="http://www.w3.org/1999/xlink" width="48" height="48"><defs><linearGradient x1="11.22545" y1="10.46951" x2="78.39322" y2="79.14915" gradientUnits="userSpaceOnUse" id="color-1"><stop offset="0" stop-color="#000000" stop-opacity="0.15"></stop><stop offset="1" stop-color="#000000" stop-opacity="0"></stop></linearGradient><filter id="dropshadow-base"><feColorMatrix type="matrix" values="0 0 0 0 0  0 0 0 0 0  0 0 0 0 0  0 0 0 .8 0"></feColorMatrix> <feOffset dx="0" dy="1"></feOffset> <feGaussianBlur stdDeviation="1"></feGaussianBlur> <feComposite in="SourceGraphic"></feComposite></filter><filter id="dropshadow-banner" x="-10%" y="-10%" width="120%" height="130%"><feColorMatrix type="matrix" values="0 0 0 0 0  0 0 0 0 0  0 0 0 0 0  0 0 0 .4 0"></feColorMatrix> <feOffset dx="0" dy="1"></feOffset> <feGaussianBlur stdDeviation="0.5"></feGaussianBlur> <feComposite in="SourceGraphic"></feComposite></filter></defs><g fill="none" fill-rule="nonzero" stroke="none" stroke-width="none" stroke-linecap="butt" stroke-linejoin="miter" stroke-miterlimit="10" stroke-dasharray="" stroke-dashoffset="0" font-family="none" font-weight="none" font-size="none" text-anchor="none" style="mix-blend-mode: normal"><path d="M7,43c-1.10457,0 -2,-0.89543 -2,-2v-34c0,-1.10457 0.89543,-2 2,-2h34c1.10457,0 2,0.89543 2,2v34c0,1.10457 -0.89543,2 -2,2z" id="base 1 5" fill="#ffffff" stroke-width="1"></path><path d="M14.41904,31.41582c2.22245,-2.35259 3.25253,-3.40636 3.38744,-3.46535c0.27564,-0.12053 0.50616,-0.10533 0.80101,0.0528l0.2565,0.13755l1.05465,-1.11608c0.91553,-0.96886 1.0462,-1.12824 0.99066,-1.2083c-0.03519,-0.05073 -0.23442,-0.35779 -0.44272,-0.68237c-1.9774,-3.0813 -2.00807,-7.20799 -0.07699,-10.35723c2.70902,-4.41792 8.31787,-5.64241 12.42747,-2.71307c0.41941,0.29896 0.80792,0.62901 1.16434,0.98543l9.0186,9.0186v18.9322c0,1.10457 -0.89543,2 -2,2l-21.98566,0l-5.46952,-5.46952l-1.15969,-1.22925c-0.8915,-0.94497 -1.15969,-1.26112 -1.15969,-1.36704c0,-0.10861 0.67643,-0.85383 3.19359,-3.51837z" fill="url(#color-1)" stroke-width="1"></path><path d="M12.38513,36.30124c-0.89149,-0.94498 -1.15968,-1.26112 -1.15968,-1.36704c0,-0.1086 0.67644,-0.85383 3.19359,-3.51837c2.22245,-2.35259 3.25253,-3.40636 3.38744,-3.46534c0.27564,-0.12052 0.50616,-0.10533 0.80101,0.0528l0.2565,0.13756l1.05465,-1.11608c0.91553,-0.96886 1.04621,-1.12825 0.99066,-1.2083c-0.03519,-0.05072 -0.23441,-0.35779 -0.44271,-0.68238c-1.9774,-3.08129 -2.00807,-7.20799 -0.07698,-10.35723c2.70902,-4.41792 8.31787,-5.6424 12.42747,-2.71307c3.74168,2.66708 5.02337,7.80878 3.00842,12.06876c-1.97971,4.18549 -6.56876,6.20172 -10.75321,4.72449c-0.82476,-0.29117 -1.46832,-0.6265 -2.17994,-1.13589l-0.57983,-0.41505l-1.05911,1.12204l-1.05911,1.12204l0.12999,0.27169c0.1494,0.31226 0.16378,0.55641 0.04996,0.84844c-0.05565,0.1428 -1.03611,1.21866 -3.21949,3.53277l-3.13947,3.32744h-0.23523h-0.23523zM29.15781,27.22971c1.39544,-0.28551 2.54898,-0.9202 3.57515,-1.9671c1.14276,-1.16585 1.83213,-2.56377 2.09309,-4.24442c0.10784,-0.69453 0.06842,-2.03635 -0.07952,-2.70679c-0.16275,-0.7376 -0.51785,-1.74495 -0.52563,-1.49114c-0.00149,0.04556 -0.03733,0.39349 -0.07984,0.77318c-0.04252,0.37969 -0.07787,0.95129 -0.07856,1.27023c-0.00074,0.31894 -0.0185,0.60653 -0.03956,0.6391c-0.02107,0.03256 -0.20768,0.17446 -0.41468,0.31532c-0.20701,0.14086 -0.56522,0.44722 -0.79604,0.6808c-0.23082,0.23358 -0.43242,0.41118 -0.448,0.39467c-0.0156,-0.01652 0.16214,-0.7681 0.39495,-1.67019c0.23281,-0.9021 0.41608,-1.69378 0.40726,-1.75931c-0.01792,-0.13324 -0.22532,-0.19568 -0.3193,-0.09613c-0.03114,0.03298 -0.24727,0.79786 -0.4803,1.69973c-0.23303,0.90187 -0.44725,1.64809 -0.47606,1.65826c-0.02881,0.01018 -0.1045,-0.19955 -0.16821,-0.46605c-0.06371,-0.2665 -0.22017,-0.71784 -0.3477,-1.00299c-0.12752,-0.28515 -0.23186,-0.56656 -0.23186,-0.62536c0,-0.0588 0.06914,-0.21336 0.15364,-0.34345c0.22252,-0.34258 0.60569,-1.16881 0.91958,-1.98294c0.15023,-0.38964 0.28216,-0.71799 0.29318,-0.72966c0.01101,-0.01166 0.30053,0.06201 0.64336,0.16375c0.34283,0.10173 0.63167,0.17685 0.64187,0.16694c0.01021,-0.00992 -0.05845,-0.13159 -0.15255,-0.2704c-0.1302,-0.19204 -0.22189,-0.26641 -0.38353,-0.31109c-0.95363,-0.26361 -0.98508,-0.29171 -0.89775,-0.80201l0.0533,-0.31147l-0.17932,-0.16002c-0.24797,-0.22129 -1.00203,-0.71489 -1.37739,-0.90164c-0.8744,-0.43503 -1.68018,-0.63303 -2.73852,-0.6729c-1.25801,-0.0474 -2.23092,0.16502 -3.3109,0.72288c-0.77317,0.39938 -1.38542,0.87381 -2.00038,1.55009c-0.99311,1.09213 -1.57829,2.28902 -1.86637,3.81731c-0.13618,0.72247 -0.12316,2.07085 0.02726,2.82254c0.29344,1.46639 0.93084,2.70947 1.93431,3.77236c1.14572,1.21355 2.54105,1.93664 4.15288,2.1521c0.49845,0.06663 1.57602,0.02349 2.10215,-0.08416zM24.57333,21.28356c-1.67761,-0.2732 -3.07953,-0.52242 -3.11537,-0.55382c-0.09291,-0.08139 -0.08059,-0.35072 0.02096,-0.45828c0.10679,-0.11312 0.0118,-0.1245 2.96406,0.35517c1.48368,0.24106 2.3264,0.35575 2.38541,0.32465c0.11041,-0.0582 0.11597,-0.25346 0.01138,-0.39993c-0.10659,-0.14926 -0.09552,-0.38216 0.02359,-0.49633c0.09541,-0.09145 0.20204,-0.08249 2.25506,0.18953c1.18521,0.15704 2.21867,0.31089 2.29657,0.3419c0.15634,0.06222 0.22198,0.20636 0.17117,0.37591c-0.06818,0.22754 -0.16157,0.2275 -1.78047,-0.00078c-0.85607,-0.12066 -1.63192,-0.21959 -1.72411,-0.21984c-0.23566,-0.00059 -0.30121,0.14657 -0.16834,0.37801c0.13729,0.23913 0.13138,0.47662 -0.01456,0.58489c-0.06373,0.04728 -0.15172,0.08363 -0.19552,0.08076c-0.0438,-0.00286 -1.45223,-0.22874 -3.12984,-0.50194z" id="path32 1 1" fill="none" stroke-width="0"></path><path d="M12.38513,36.30124c-0.89149,-0.94498 -1.15968,-1.26112 -1.15968,-1.36704c0,-0.1086 0.67644,-0.85383 3.19359,-3.51837c2.22245,-2.35259 3.25253,-3.40636 3.38744,-3.46534c0.27564,-0.12052 0.50616,-0.10533 0.80101,0.0528l0.2565,0.13756l1.05465,-1.11608c0.91553,-0.96886 1.04621,-1.12825 0.99066,-1.2083c-0.03519,-0.05072 -0.23441,-0.35779 -0.44271,-0.68238c-1.9774,-3.08129 -2.00807,-7.20799 -0.07698,-10.35723c2.70902,-4.41792 8.31787,-5.6424 12.42747,-2.71307c3.74168,2.66708 5.02337,7.80878 3.00842,12.06876c-1.97971,4.18549 -6.56876,6.20172 -10.75321,4.72449c-0.82476,-0.29117 -1.46832,-0.6265 -2.17994,-1.13589l-0.57983,-0.41505l-1.05911,1.12204l-1.05911,1.12204l0.12999,0.27169c0.1494,0.31226 0.16378,0.55641 0.04996,0.84844c-0.05565,0.1428 -1.03611,1.21866 -3.21949,3.53277l-3.13947,3.32744h-0.47045zM29.15781,27.22971c1.39544,-0.28551 2.54898,-0.9202 3.57515,-1.9671c1.14276,-1.16585 1.83213,-2.56377 2.09309,-4.24442c0.10784,-0.69453 0.06842,-2.03635 -0.07952,-2.70679c-0.16275,-0.7376 -0.51785,-1.74495 -0.52563,-1.49114c-0.00149,0.04556 -0.03733,0.39349 -0.07984,0.77318c-0.04252,0.37969 -0.07787,0.95129 -0.07856,1.27023c-0.00074,0.31894 -0.0185,0.60653 -0.03956,0.6391c-0.02107,0.03256 -0.20768,0.17446 -0.41468,0.31532c-0.20701,0.14086 -0.56522,0.44722 -0.79604,0.6808c-0.23082,0.23358 -0.43242,0.41118 -0.448,0.39467c-0.0156,-0.01652 0.16214,-0.7681 0.39495,-1.67019c0.23281,-0.9021 0.41608,-1.69378 0.40726,-1.75931c-0.01792,-0.13324 -0.22532,-0.19568 -0.3193,-0.09613c-0.03114,0.03298 -0.24727,0.79786 -0.4803,1.69973c-0.23303,0.90187 -0.44725,1.64809 -0.47606,1.65826c-0.02881,0.01018 -0.1045,-0.19955 -0.16821,-0.46605c-0.06371,-0.2665 -0.22017,-0.71784 -0.3477,-1.00299c-0.12752,-0.28515 -0.23186,-0.56656 -0.23186,-0.62536c0,-0.0588 0.06914,-0.21336 0.15364,-0.34345c0.22252,-0.34258 0.60569,-1.16881 0.91958,-1.98294c0.15023,-0.38964 0.28216,-0.71799 0.29318,-0.72966c0.01101,-0.01166 0.30053,0.06201 0.64336,0.16375c0.34283,0.10173 0.63167,0.17685 0.64187,0.16694c0.01021,-0.00992 -0.05845,-0.13159 -0.15255,-0.2704c-0.1302,-0.19204 -0.22189,-0.26641 -0.38353,-0.31109c-0.95363,-0.26361 -0.98508,-0.29171 -0.89775,-0.80201l0.0533,-0.31147l-0.17932,-0.16002c-0.24797,-0.22129 -1.00203,-0.71489 -1.37739,-0.90164c-0.8744,-0.43503 -1.68018,-0.63303 -2.73852,-0.6729c-1.25801,-0.0474 -2.23092,0.16502 -3.3109,0.72288c-0.77317,0.39938 -1.38542,0.87381 -2.00038,1.55009c-0.99311,1.09213 -1.57829,2.28902 -1.86637,3.81731c-0.13618,0.72247 -0.12316,2.07085 0.02726,2.82254c0.29344,1.46639 0.93084,2.70947 1.93431,3.77236c1.14572,1.21355 2.54105,1.93664 4.15288,2.1521c0.49845,0.06663 1.57602,0.02349 2.10215,-0.08416zM24.57333,21.28356c-1.67761,-0.2732 -3.07953,-0.52242 -3.11537,-0.55382c-0.09291,-0.08139 -0.08059,-0.35072 0.02096,-0.45828c0.10679,-0.11312 0.0118,-0.1245 2.96406,0.35517c1.48368,0.24106 2.3264,0.35575 2.38541,0.32465c0.11041,-0.0582 0.11597,-0.25346 0.01138,-0.39993c-0.10659,-0.14926 -0.09552,-0.38216 0.02359,-0.49633c0.09541,-0.09145 0.20204,-0.08249 2.25506,0.18953c1.18521,0.15704 2.21867,0.31089 2.29657,0.3419c0.15634,0.06222 0.22198,0.20636 0.17117,0.37591c-0.06818,0.22754 -0.16157,0.2275 -1.78047,-0.00078c-0.85607,-0.12066 -1.63192,-0.21959 -1.72411,-0.21984c-0.23566,-0.00059 -0.30121,0.14657 -0.16834,0.37801c0.13729,0.23913 0.13138,0.47662 -0.01456,0.58489c-0.06373,0.04728 -0.15172,0.08363 -0.19552,0.08076c-0.0438,-0.00286 -1.45223,-0.22874 -3.12984,-0.50194z" id="path32 1 1" fill="#6aa84f" stroke-width="0"></path><path d="M2,24c0,-12.15026 9.84974,-22 22,-22c12.15026,0 22,9.84974 22,22c0,12.15026 -9.84974,22 -22,22c-12.15026,0 -22,-9.84974 -22,-22z" id="base 1 1 1" fill="none" stroke-width="1"></path><g id="svg8 1 1" fill="#000000" stroke-width="1" font-family="Roboto, sans-serif" font-weight="400" font-size="14" text-anchor="start"><g id="layer1 1 1"></g></g><rect x="2" y="2" width="44" height="22" fill="none" stroke-width="1"></rect><path d="M2,24v-22h44v22z" fill="none" stroke-width="1"></path><path d="M2,24v-22h44v22z" fill="none" stroke-width="1"></path><path d="M2,24v-22h44v22z" fill="none" stroke-width="1"></path><path d="M2,24v-22h44v22z" fill="none" stroke-width="1"></path></g></svg>